{"title":"Arrow S04E02 The Candidate 1080P WEB-DL DD5 1 H 264","uid":12589460,"size":1791659107,"categoryP":"video","categoryS":"hd___tv_shows","magnet":"?xt=urn:btih:e95881d8d6d6926b6f4539aa53099549771fd0da&amp;dn=Arrow+S04E02+The+Candidate+1080P+WEB-DL+DD5+1+H+264&amp;tr=udp%3A%2F%2Ftracker.leechers-paradise.org%3A6969&amp;tr=udp%3A%2F%2Fzer0day.ch%3A1337&amp;tr=udp%3A%2F%2Fopen.demonii.com%3A1337&amp;tr=udp%3A%2F%2Ftracker.coppersurfer.tk%3A6969&amp;tr=udp%3A%2F%2Fexodus.desync.com%3A6969","seeders":1,"leechers":0,"uploader":"jmanwf","files":2,"time":1445077469,"description":"When an old family friend, Jessica Danforth (guest star Jeri Ryan), tells Oliver and Thea that she is going to run for mayor, both Queens are concerned – considering the last three mayors have been murdered. Despite their protests, Jessica makes her announcement; so the Green Arrow and Speedy vow to protect her. Meanwhile, Thea begins to exhibit effects from the Lazarus Pit. In addition, Felicity is faced with a tough business decision and looks to one of her employees, Curtis Holt (guest star Echo Kellum), for help.\r\n\r\n\r\n\r\nVideo\r\nID : 2\r\nFormat : AVC\r\nFormat/Info : Advanced Video Codec\r\nFormat profile :   \r\nFormat settings, CABAC : Yes\r\nFormat settings, ReFrames : 4 frames\r\nCodec ID : avc1\r\nCodec ID/Info : Advanced Video Coding\r\nDuration : 42mn 27s\r\nBit rate : 5 115 Kbps\r\nWidth : 1 916 pixels\r\nHeight : 1 076 pixels\r\nDisplay aspect ratio : 16:9\r\nFrame rate mode : Constant\r\nFrame rate : 23.976 fps\r\nColor space : YUV\r\nChroma subsampling : 4:2:0\r\nBit depth : 8 bits\r\nScan type : Progressive\r\nBits/(Pixel*Frame) : 0.103\r\nStream size : 1.52 GiB (91%)\r\nLanguage : English\r\nEncoded date : UTC 2015-10-17 01:44:35\r\nTagged date : UTC 2015-10-17 01:48:05\r\nColor range : Limited\r\nColor primaries : BT.709\r\nTransfer characteristics : BT.709\r\nMatrix coefficients : BT.709\r\n\r\nAudio #1\r\nID : 1\r\nFormat : AAC\r\nFormat/Info : Advanced Audio Codec\r\nFormat profile : LC\r\nCodec ID : 40\r\nDuration : 42mn 27s\r\nBit rate mode : Variable\r\nBit rate : 124 Kbps\r\nMaximum bit rate : 204 Kbps\r\nChannel(s) : 2 channels\r\nChannel positions : Front: L R\r\nSampling rate : 48.0 KHz\r\nCompression mode : Lossy\r\nStream size : 37.6 MiB (2%)\r\nLanguage : English\r\nEncoded date : UTC 2015-10-17 01:44:35\r\nTagged date : UTC 2015-10-17 01:48:05\r\n\r\nAudio #2\r\nID : 3\r\nFormat : AC-3\r\nFormat/Info : Audio Coding 3\r\nMode extension : CM (complete main)\r\nFormat settings, Endianness : Big\r\nCodec ID : ac-3\r\nDuration : 42mn 27s\r\nBit rate mode : Constant\r\nBit rate : 384 Kbps\r\nChannel(s) : 6 channels\r\nChannel positions : Front: L C R, Side: L R, LFE\r\nSampling rate : 48.0 KHz\r\nBit depth : 16 bits\r\nCompression mode : Lossy\r\nStream size : 117 MiB (7%)\r\nLanguage : English\r\nEncoded date : UTC 2015-10-17 01:44:35\r\nTagged date : UTC 2015-10-17 01:48:05\r\n\r\nText\r\nID : 4-CC1\r\nFormat : EIA-608\r\nMuxing mode : Final Cut\r\nCodec ID : c608\r\nDuration : 41mn 25s\r\nBit rate mode : Constant\r\nStream size : 0.00 Byte (0%)\r\nLanguage : English\r\nEncoded date : UTC 2015-10-17 01:44:35\r\nTagged date : UTC 2015-10-17 01:44:43\r\n \nhttps://itunes.apple.com/us/tv-season/arrow-season-4/id1027608805","torrent":{"xt":"urn:btih:e95881d8d6d6926b6f4539aa53099549771fd0da","amp;dn":"Arrow+S04E02+The+Candidate+1080P+WEB-DL+DD5+1+H+264","amp;tr":["udp%3A%2F%2Ftracker.leechers-paradise.org%3A6969","udp%3A%2F%2Fzer0day.ch%3A1337","udp%3A%2F%2Fopen.demonii.com%3A1337","udp%3A%2F%2Ftracker.coppersurfer.tk%3A6969","udp%3A%2F%2Fexodus.desync.com%3A6969"],"infoHash":"e95881d8d6d6926b6f4539aa53099549771fd0da","infoHashBuffer":{"type":"Buffer","data":[233,88,129,216,214,214,146,107,111,69,57,170,83,9,149,73,119,31,208,218]},"announce":[],"urlList":[]}}